<?xml version="1.0" encoding="UTF-8"?>
<svg width="76px" height="19px" viewBox="0 0 76 19" version="1.1" xmlns="http://www.w3.org/2000/svg" xmlns:xlink="http://www.w3.org/1999/xlink">
    <!-- Generator: Sketch 48.2 (47327) - http://www.bohemiancoding.com/sketch -->
    <title>logopostwhite</title>
    <desc>Created with Sketch.</desc>
    <defs></defs>
    <g id="app-bar-/-logo" stroke="none" stroke-width="1" fill="none" fill-rule="evenodd" transform="translate(-122.000000, -13.000000)">
        <g id="Group-9" fill-rule="nonzero">
            <g id="logopostwhite" transform="translate(122.000000, 13.000000)">
                <g id="XMLID_18_" fill="#124983">
                    <g id="Group">
                        <path d="M9.52835821,0.113432836 C4.35298507,0.113432836 0.12761194,4.31044776 0.12761194,9.5 C0.12761194,11.7261194 0.907462687,13.7679104 2.18358209,15.3701493 L2.18358209,9.37238806 C2.18358209,8.35149254 2.38208955,7.38731343 2.76492537,6.49402985 C3.14776119,5.60074627 3.67238806,4.82089552 4.33880597,4.15447761 C5.00522388,3.4880597 5.79925373,2.94925373 6.70671642,2.55223881 C7.6141791,2.15522388 8.60671642,1.92835821 9.64179104,1.8858209 C10.6485075,1.8858209 11.5985075,2.08432836 12.5059701,2.46716418 C13.4134328,2.85 14.1932836,3.38880597 14.8738806,4.06940299 C15.5544776,4.75 16.0932836,5.52985075 16.4902985,6.43731343 C16.8873134,7.34477612 17.0858209,8.30895522 17.0858209,9.35820896 C17.0858209,10.3791045 16.8873134,11.3432836 16.5044776,12.2365672 C16.1216418,13.1298507 15.5828358,13.9097015 14.9164179,14.5902985 C14.25,15.2708955 13.4701493,15.7955224 12.5626866,16.1925373 C11.6552239,16.5895522 10.6910448,16.7738806 9.64179104,16.7738806 C8.62089552,16.7738806 7.65671642,16.5895522 6.74925373,16.2208955 C6.74925373,16.2208955 6.52238806,16.1216418 6.46567164,16.0932836 C6.39477612,16.0649254 6.21044776,15.9656716 6.21044776,15.9656716 L6.21044776,18.2768657 C7.2738806,18.6738806 8.39402985,18.8723881 9.5141791,18.8723881 C14.6895522,18.8723881 18.9007463,14.6753731 18.9007463,9.4858209 C18.9149254,4.32462687 14.7179104,0.113432836 9.52835821,0.113432836 Z" id="XMLID_20_"></path>
                        <path d="M7.24552239,11.8253731 C7.55746269,12.1373134 7.9261194,12.3925373 8.33731343,12.5768657 C8.74850746,12.761194 9.1880597,12.8604478 9.65597015,12.8604478 C10.1238806,12.8604478 10.5776119,12.7753731 10.988806,12.5768657 C11.4141791,12.3925373 11.7686567,12.1373134 12.080597,11.8253731 C12.3925373,11.5134328 12.6335821,11.1447761 12.8179104,10.719403 C13.0022388,10.2940299 13.1014925,9.85447761 13.1014925,9.38656716 C13.0589552,8.43656716 12.7186567,7.64253731 12.080597,6.99029851 C11.4425373,6.3380597 10.6343284,5.98358209 9.65597015,5.94104478 C9.1880597,5.94104478 8.74850746,6.0261194 8.33731343,6.19626866 C7.9261194,6.36641791 7.55746269,6.60746269 7.24552239,6.91940299 C6.93358209,7.23134328 6.67835821,7.5858209 6.49402985,8.01119403 C6.30970149,8.43656716 6.21044776,8.89029851 6.21044776,9.38656716 C6.21044776,9.85447761 6.30970149,10.308209 6.49402985,10.719403 C6.67835821,11.130597 6.93358209,11.5134328 7.24552239,11.8253731 Z" id="XMLID_19_"></path>
                    </g>
                </g>
                <g id="XMLID_3_" transform="translate(24.277778, 3.166667)" fill="#212121">
                    <path d="M3.54184783,2.6161744 C2.86721014,2.6161744 2.08013285,2.91012658 1.61631944,3.60091421 C1.61631944,3.60091421 1.61631944,3.60091421 1.60226449,3.61561181 L1.54604469,3.1011955 L1.50387983,2.58677918 L0.871407005,2.58677918 C0.463813406,2.58677918 0.0983846618,2.96891702 0.0983846618,3.39514768 L0.0983846618,10.6851617 L0.0983846618,10.9497187 L0.0983846618,11.6111111 L0.857352053,11.6111111 C1.26494565,11.6111111 1.6303744,11.2436709 1.6303744,10.8174402 L1.6303744,8.26005626 C2.02391304,8.93614627 2.96559481,9.1419128 3.59806763,9.1419128 C5.50954106,9.1419128 6.60582729,7.70154712 6.60582729,5.8790436 C6.60582729,4.04184248 5.3830465,2.6161744 3.54184783,2.6161744 Z M3.42940821,7.64275668 C2.43150664,7.64275668 1.74281401,6.84908579 1.74281401,5.8790436 C1.74281401,4.90900141 2.37528684,4.11533052 3.42940821,4.11533052 C4.49758454,4.11533052 5.11600242,4.90900141 5.11600242,5.8790436 C5.13005737,6.84908579 4.44136473,7.64275668 3.42940821,7.64275668 Z" id="XMLID_15_"></path>
                    <path d="M10.484994,2.63087201 C8.58757548,2.63087201 7.40695954,4.10063291 7.40695954,5.8790436 C7.40695954,7.6721519 8.57352053,9.12721519 10.4990489,9.12721519 C12.4386322,9.12721519 13.6051932,7.6721519 13.6051932,5.8790436 C13.6051932,4.0859353 12.3824124,2.63087201 10.484994,2.63087201 Z M10.4990489,7.70154712 C9.41681763,7.70154712 8.88272947,6.81969058 8.88272947,5.86434599 C8.88272947,4.92369902 9.44492754,4.01244726 10.4990489,4.01244726 C11.4828955,4.01244726 12.1153684,4.92369902 12.1153684,5.86434599 C12.1153684,6.81969058 11.5812802,7.70154712 10.4990489,7.70154712 Z" id="XMLID_12_"></path>
                    <path d="M17.0627114,5.14416315 C16.303744,5.10007032 15.9523702,4.86490858 15.9523702,4.46807314 C15.9523702,4.07123769 16.3459088,3.85077356 17.0346014,3.85077356 C17.5967995,3.85077356 18.0887228,3.98305204 18.5103714,4.4092827 L19.3255586,3.39514768 C18.6368659,2.76315049 17.9341184,2.57208158 17.0064915,2.57208158 C15.9242603,2.57208158 14.4906552,3.07180028 14.4906552,4.51216596 C14.4906552,5.92313643 15.8258756,6.3640647 16.9502717,6.45225035 C17.7935688,6.49634318 18.1308877,6.67271449 18.1308877,7.11364276 C18.1308877,7.56926864 17.6108545,7.87791842 17.0627114,7.86322082 C16.4021286,7.84852321 15.432337,7.48108298 15.0106884,6.99606188 L14.2798309,8.09838256 C15.1512379,9.03902954 16.0929197,9.21540084 17.0346014,9.21540084 C18.7352506,9.21540084 19.5926027,8.27475387 19.5926027,7.17243319 C19.6066576,5.49690577 18.1871075,5.2323488 17.0627114,5.14416315 Z" id="XMLID_11_"></path>
                    <path d="M49.164221,5.14416315 C48.4052536,5.10007032 48.0538798,4.86490858 48.0538798,4.46807314 C48.0538798,4.07123769 48.4333635,3.85077356 49.1361111,3.85077356 C49.6983092,3.85077356 50.1902325,3.98305204 50.611881,4.4092827 L51.4270682,3.39514768 C50.7383756,2.76315049 50.035628,2.57208158 49.1080012,2.57208158 C48.0257699,2.57208158 46.5921649,3.07180028 46.5921649,4.51216596 C46.5921649,5.92313643 47.9273853,6.3640647 49.0517814,6.45225035 C49.8950785,6.49634318 50.2323973,6.67271449 50.2323973,7.11364276 C50.2323973,7.56926864 49.7123641,7.87791842 49.1501661,7.86322082 C48.4895833,7.84852321 47.5197917,7.48108298 47.0981431,6.99606188 L46.3672856,8.09838256 C47.2386926,9.03902954 48.1803744,9.21540084 49.1220562,9.21540084 C50.8227053,9.21540084 51.6800574,8.27475387 51.6800574,7.17243319 C51.7081673,5.49690577 50.2886171,5.2323488 49.164221,5.14416315 Z" id="XMLID_10_"></path>
                    <path d="M43.9779438,3.40984529 L43.9779438,5.98192686 C43.9779438,6.92257384 43.345471,7.73094233 42.4459541,7.73094233 C41.5042723,7.73094233 40.9982941,7.01075949 40.9982941,6.07011252 L40.9982941,3.55682138 L40.9982941,3.29226442 L40.9982941,2.64556962 L40.2814915,2.64556962 C39.8738979,2.64556962 39.5365791,2.98361463 39.5365791,3.40984529 L39.5365791,6.07011252 C39.5365791,8.01019691 40.5766455,9.12721519 41.9961957,9.12721519 C42.7973279,9.12721519 43.345471,8.84796062 43.935779,8.26005626 C43.9638889,8.23066104 43.9779438,8.21596343 44.0060537,8.18656821 L44.0763285,8.80386779 L44.1184934,9.15661041 L44.6666365,9.15661041 C45.0742301,9.15661041 45.4396588,8.77447257 45.4396588,8.34824191 L45.4396588,3.5862166 L45.4396588,3.20407876 L45.4396588,2.6161744 L44.6947464,2.6161744 C44.2871528,2.64556962 43.9779438,2.98361463 43.9779438,3.40984529 Z" id="XMLID_9_"></path>
                    <path d="M28.7002114,2.66026723 C28.0255737,2.66026723 27.3649909,2.88073136 26.8309028,3.60091421 L26.8309028,1.04353024 L26.8309028,0.778973277 L26.8309028,0.132278481 L26.1141002,0.132278481 C25.7065066,0.132278481 25.3691878,0.485021097 25.3691878,0.911251758 L25.3691878,8.23066104 L25.3691878,8.495218 L25.3691878,9.11251758 L26.1000453,9.11251758 C26.5076389,9.11251758 26.8309028,8.80386779 26.8309028,8.36293952 L26.8309028,5.80555556 C26.8309028,4.86490858 27.4493207,4.10063291 28.3207277,4.10063291 C29.107805,4.10063291 29.684058,4.58565401 29.684058,5.7173699 L29.684058,8.36293952 C29.684058,8.78917018 30.0073219,9.11251758 30.4149155,9.11251758 L31.1457729,9.11251758 L31.1457729,8.495218 L31.1457729,8.23066104 L31.1457729,5.70267229 C31.1457729,3.86547117 30.3868056,2.66026723 28.7002114,2.66026723 Z" id="XMLID_8_"></path>
                    <path d="M37.0629076,3.39514768 L37.0629076,3.52742616 L37.0629076,3.60091421 C37.0488527,3.57151899 37.0347977,3.54212377 37.0066878,3.51272855 C36.6412591,2.9395218 35.9244565,2.58677918 35.1654891,2.58677918 C33.4226751,2.57208158 32.0593448,3.70379747 32.0593448,5.84964838 C32.0593448,8.03959212 33.3664553,9.17130802 35.1233243,9.15661041 C35.783907,9.1419128 36.6834239,8.80386779 37.0347977,8.08368495 C37.0347977,8.06898734 37.0488527,8.06898734 37.0488527,8.05428973 L37.1191274,8.62749648 L37.1612923,9.09781997 L37.7797101,9.09781997 C38.1873037,9.09781997 38.5246226,8.77447257 38.5246226,8.3335443 L38.5246226,3.71849508 L38.5246226,3.32165963 L38.5246226,2.64556962 L37.80782,2.64556962 C37.4002264,2.64556962 37.0629076,2.96891702 37.0629076,3.39514768 Z M35.3341486,7.76033755 C34.336247,7.76033755 33.5772796,7.05485232 33.5772796,5.86434599 C33.5772796,4.67383966 34.3503019,3.98305204 35.3341486,3.98305204 C37.5969958,3.98305204 37.5969958,7.76033755 35.3341486,7.76033755 Z" id="XMLID_5_"></path>
                    <path d="M24.1042421,7.53987342 C23.8934179,7.65745429 23.6263738,7.73094233 23.4014946,7.73094233 C22.9376812,7.73094233 22.6425272,7.43699015 22.6425272,6.84908579 L22.6425272,3.96835443 L23.0079559,3.96835443 L24.0620773,3.96835443 L24.3150664,3.96835443 L24.3150664,3.38045007 C24.3150664,2.95421941 23.9496377,2.63087201 23.5420441,2.63087201 L22.6284722,2.63087201 L22.6425272,2.63087201 L22.6425272,1.02883263 L22.6425272,0.764275668 L22.6425272,0.132278481 L21.8976147,0.132278481 C21.4900211,0.132278481 21.1808122,0.470323488 21.1808122,0.896554149 L21.1808122,2.64556962 L20.2672403,2.64556962 L20.0564161,2.64556962 L20.0564161,3.15998594 C20.0564161,3.5862166 20.37968,3.96835443 20.8013285,3.96835443 L21.1948671,3.96835443 L21.1948671,6.84908579 C21.1948671,8.40703235 22.0241093,9.17130802 23.3171649,9.12721519 C23.7669233,9.11251758 24.1042421,9.03902954 24.5258907,8.86265823 L24.1042421,7.53987342 Z" id="XMLID_4_"></path>
                </g>
            </g>
        </g>
    </g>
</svg>